<svg width="22" height="22" viewBox="0 0 22 22" fill="none" xmlns="http://www.w3.org/2000/svg">
<g clip-path="url(#clip0_19087_25965)">
<path d="M6.82609 0.59082H1.37519C0.940594 0.59082 0.589478 0.941936 0.589478 1.37653V6.87653C0.589478 7.09261 0.766263 7.26939 0.982335 7.26939H2.16091C2.37698 7.26939 2.55376 7.09261 2.55376 6.87653V2.55511H6.82609C7.04216 2.55511 7.21894 2.37832 7.21894 2.16225V0.983677C7.21894 0.767606 7.04216 0.59082 6.82609 0.59082ZM21.0181 14.7337H19.8395C19.6234 14.7337 19.4466 14.9105 19.4466 15.1265V19.448H15.1743C14.9582 19.448 14.7814 19.6247 14.7814 19.8408V21.0194C14.7814 21.2355 14.9582 21.4122 15.1743 21.4122H20.6252C21.0598 21.4122 21.4109 21.0611 21.4109 20.6265V15.1265C21.4109 14.9105 21.2341 14.7337 21.0181 14.7337ZM6.82609 19.448H2.55376V15.1265C2.55376 14.9105 2.37698 14.7337 2.16091 14.7337H0.982335C0.766263 14.7337 0.589478 14.9105 0.589478 15.1265V20.6265C0.589478 21.0611 0.940594 21.4122 1.37519 21.4122H6.82609C7.04216 21.4122 7.21894 21.2355 7.21894 21.0194V19.8408C7.21894 19.6247 7.04216 19.448 6.82609 19.448ZM20.6252 0.59082H15.1743C14.9582 0.59082 14.7814 0.767606 14.7814 0.983677V2.16225C14.7814 2.37832 14.9582 2.55511 15.1743 2.55511H19.4466V6.87653C19.4466 7.09261 19.6234 7.26939 19.8395 7.26939H21.0181C21.2341 7.26939 21.4109 7.09261 21.4109 6.87653V1.37653C21.4109 0.941936 21.0598 0.59082 20.6252 0.59082Z" fill="#00ACBB"/>
</g>
<defs>
<clipPath id="clip0_19087_25965">
<rect width="22" height="22" fill="white"/>
</clipPath>
</defs>
</svg>
