<svg width="20" height="20" viewBox="0 0 20 20" fill="none" xmlns="http://www.w3.org/2000/svg">
<g id="User">
<path id="Vector" d="M17.7328 15.6134C17.3117 14.616 16.7006 13.7101 15.9337 12.946C15.169 12.1797 14.2632 11.5688 13.2662 11.1469C13.2573 11.1424 13.2484 11.1402 13.2395 11.1357C14.6301 10.1313 15.5341 8.4951 15.5341 6.64912C15.5341 3.59108 13.0564 1.1134 9.99838 1.1134C6.94035 1.1134 4.46267 3.59108 4.46267 6.64912C4.46267 8.4951 5.36669 10.1313 6.75731 11.138C6.74838 11.1424 6.73945 11.1447 6.73053 11.1491C5.73053 11.571 4.8332 12.1759 4.06311 12.9482C3.29684 13.7129 2.68589 14.6187 2.26401 15.6156C1.84955 16.5917 1.62602 17.6381 1.60552 18.6982C1.60493 18.7221 1.60911 18.7458 1.61781 18.7679C1.62652 18.7901 1.63958 18.8103 1.65622 18.8274C1.67286 18.8445 1.69275 18.858 1.71471 18.8673C1.73667 18.8765 1.76027 18.8813 1.7841 18.8813H3.12338C3.2216 18.8813 3.29972 18.8031 3.30195 18.7072C3.3466 16.9839 4.03856 15.3701 5.26177 14.1469C6.5274 12.8813 8.2082 12.1848 9.99838 12.1848C11.7886 12.1848 13.4694 12.8813 14.735 14.1469C15.9582 15.3701 16.6502 16.9839 16.6948 18.7072C16.697 18.8054 16.7752 18.8813 16.8734 18.8813H18.2127C18.2365 18.8813 18.2601 18.8765 18.2821 18.8673C18.304 18.858 18.3239 18.8445 18.3405 18.8274C18.3572 18.8103 18.3702 18.7901 18.379 18.7679C18.3877 18.7458 18.3918 18.7221 18.3912 18.6982C18.3689 17.6313 18.1479 16.5933 17.7328 15.6134ZM9.99838 10.4884C8.97383 10.4884 8.00954 10.0889 7.2841 9.36341C6.55865 8.63796 6.1591 7.67367 6.1591 6.64912C6.1591 5.62456 6.55865 4.66028 7.2841 3.93483C8.00954 3.20939 8.97383 2.80983 9.99838 2.80983C11.0229 2.80983 11.9872 3.20939 12.7127 3.93483C13.4381 4.66028 13.8377 5.62456 13.8377 6.64912C13.8377 7.67367 13.4381 8.63796 12.7127 9.36341C11.9872 10.0889 11.0229 10.4884 9.99838 10.4884Z" fill="#1F55D1"/>
</g>
</svg>